<?xml version="1.0" encoding="UTF-8" standalone="no"?>
<!-- This is a Stata 16.1 generated SVG file (http://www.stata.com) -->

<svg version="1.1" width="5.50in" height="4.00in" viewBox="0 0 3960 2880" xmlns="http://www.w3.org/2000/svg" xmlns:xlink="http://www.w3.org/1999/xlink">
	<desc>Stata Graph - Graph</desc>
	<rect x="0" y="0" width="3960" height="2880" style="fill:#EAF2F3;stroke:none"/>
	<rect x="0.00" y="0.00" width="3959.88" height="2880.00" style="fill:#EAF2F3"/>
	<rect x="2.88" y="2.88" width="3954.12" height="2874.24" style="fill:none;stroke:#EAF2F3;stroke-width:5.76"/>
	<rect x="63.36" y="207.91" width="1916.64" height="2608.73" style="fill:#EAF2F3"/>
	<rect x="65.52" y="210.07" width="1912.32" height="2604.41" style="fill:none;stroke:#EAF2F3;stroke-width:4.32"/>
	<rect x="356.40" y="391.93" width="1547.99" height="2131.66" style="fill:#FFFFFF"/>
	<rect x="358.56" y="394.09" width="1543.67" height="2127.34" style="fill:none;stroke:#FFFFFF;stroke-width:4.32"/>
	<line x1="356.40" y1="2523.59" x2="1904.39" y2="2523.59" style="stroke:#EAF2F3;stroke-width:6.48"/>
	<line x1="356.40" y1="1828.83" x2="1904.39" y2="1828.83" style="stroke:#EAF2F3;stroke-width:6.48"/>
	<line x1="356.40" y1="1134.20" x2="1904.39" y2="1134.20" style="stroke:#EAF2F3;stroke-width:6.48"/>
	<line x1="356.40" y1="439.45" x2="1904.39" y2="439.45" style="stroke:#EAF2F3;stroke-width:6.48"/>
	<rect x="494.88" y="508.75" width="179.81" height="2014.84" style="fill:#97B6B0"/>
	<rect x="498.12" y="511.99" width="173.33" height="2008.36" style="fill:none;stroke:#97B6B0;stroke-width:6.48"/>
	<rect x="676.54" y="516.67" width="179.93" height="2006.92" style="fill:#97B6B0"/>
	<rect x="679.78" y="519.91" width="173.45" height="2000.44" style="fill:none;stroke:#97B6B0;stroke-width:6.48"/>
	<rect x="858.21" y="1721.05" width="179.93" height="802.54" style="fill:#97B6B0"/>
	<rect x="861.45" y="1724.28" width="173.45" height="796.06" style="fill:none;stroke:#97B6B0;stroke-width:6.48"/>
	<rect x="1039.99" y="2394.02" width="179.93" height="129.57" style="fill:#97B6B0"/>
	<rect x="1043.23" y="2397.26" width="173.45" height="123.09" style="fill:none;stroke:#97B6B0;stroke-width:6.48"/>
	<rect x="1221.66" y="2517.15" width="179.93" height="6.44" style="fill:#97B6B0"/>
	<rect x="1224.90" y="2520.35" width="173.45" height="0.04" style="fill:none;stroke:#97B6B0;stroke-width:6.48"/>
	<rect x="1403.45" y="2523.47" width="179.93" height="0.12" style="fill:#97B6B0"/>
	<rect x="1406.69" y="2520.35" width="173.45" height="6.36" style="fill:none;stroke:#97B6B0;stroke-width:6.48"/>
	<line x1="356.40" y1="2523.59" x2="356.40" y2="391.93" style="stroke:#000000;stroke-width:4.32"/>
	<line x1="356.40" y1="2523.59" x2="326.45" y2="2523.59" style="stroke:#000000;stroke-width:4.32"/>
	<text x="288.92" y="2523.59" style="font-family:'Helvetica';font-size:74.99px;fill:#000000" transform="rotate(-90 288.92,2523.59)" text-anchor="middle">0</text>
	<line x1="356.40" y1="1828.83" x2="326.45" y2="1828.83" style="stroke:#000000;stroke-width:4.32"/>
	<text x="288.92" y="1828.83" style="font-family:'Helvetica';font-size:74.99px;fill:#000000" transform="rotate(-90 288.92,1828.83)" text-anchor="middle">10000</text>
	<line x1="356.40" y1="1134.20" x2="326.45" y2="1134.20" style="stroke:#000000;stroke-width:4.32"/>
	<text x="288.92" y="1134.20" style="font-family:'Helvetica';font-size:74.99px;fill:#000000" transform="rotate(-90 288.92,1134.20)" text-anchor="middle">20000</text>
	<line x1="356.40" y1="439.45" x2="326.45" y2="439.45" style="stroke:#000000;stroke-width:4.32"/>
	<text x="288.92" y="439.45" style="font-family:'Helvetica';font-size:74.99px;fill:#000000" transform="rotate(-90 288.92,439.45)" text-anchor="middle">30000</text>
	<text x="206.38" y="1457.70" style="font-family:'Helvetica';font-size:74.99px;fill:#000000" transform="rotate(-90 206.38,1457.70)" text-anchor="middle">Frequency</text>
	<line x1="356.40" y1="2523.59" x2="1904.39" y2="2523.59" style="stroke:#000000;stroke-width:4.32"/>
	<line x1="584.72" y1="2523.59" x2="584.72" y2="2553.54" style="stroke:#000000;stroke-width:4.32"/>
	<text x="584.72" y="2620.95" style="font-family:'Helvetica';font-size:74.99px;fill:#000000" text-anchor="middle">2</text>
	<line x1="766.51" y1="2523.59" x2="766.51" y2="2553.54" style="stroke:#000000;stroke-width:4.32"/>
	<text x="766.51" y="2620.95" style="font-family:'Helvetica';font-size:74.99px;fill:#000000" text-anchor="middle">3</text>
	<line x1="948.17" y1="2523.59" x2="948.17" y2="2553.54" style="stroke:#000000;stroke-width:4.32"/>
	<text x="948.17" y="2620.95" style="font-family:'Helvetica';font-size:74.99px;fill:#000000" text-anchor="middle">4</text>
	<line x1="1129.96" y1="2523.59" x2="1129.96" y2="2553.54" style="stroke:#000000;stroke-width:4.32"/>
	<text x="1129.96" y="2620.95" style="font-family:'Helvetica';font-size:74.99px;fill:#000000" text-anchor="middle">5</text>
	<line x1="1311.63" y1="2523.59" x2="1311.63" y2="2553.54" style="stroke:#000000;stroke-width:4.32"/>
	<text x="1311.63" y="2620.95" style="font-family:'Helvetica';font-size:74.99px;fill:#000000" text-anchor="middle">6</text>
	<line x1="1493.41" y1="2523.59" x2="1493.41" y2="2553.54" style="stroke:#000000;stroke-width:4.32"/>
	<text x="1493.41" y="2620.95" style="font-family:'Helvetica';font-size:74.99px;fill:#000000" text-anchor="middle">7</text>
	<line x1="1675.08" y1="2523.59" x2="1675.08" y2="2553.54" style="stroke:#000000;stroke-width:4.32"/>
	<text x="1675.08" y="2620.95" style="font-family:'Helvetica';font-size:74.99px;fill:#000000" text-anchor="middle">8</text>
	<line x1="1856.87" y1="2523.59" x2="1856.87" y2="2553.54" style="stroke:#000000;stroke-width:4.32"/>
	<text x="1856.87" y="2620.95" style="font-family:'Helvetica';font-size:74.99px;fill:#000000" text-anchor="middle">9</text>
	<text x="1130.33" y="2703.49" style="font-family:'Helvetica';font-size:74.99px;fill:#000000" text-anchor="middle"># people in household</text>
	<text x="1130.33" y="354.11" style="font-family:'Helvetica';font-weight:bold;font-size:82.54px;fill:#1E2D53" text-anchor="middle">All households</text>
	<rect x="1980.00" y="207.91" width="1916.52" height="2608.73" style="fill:#EAF2F3"/>
	<rect x="1982.16" y="210.07" width="1912.20" height="2604.41" style="fill:none;stroke:#EAF2F3;stroke-width:4.32"/>
	<rect x="2055.49" y="391.93" width="1765.42" height="2131.66" style="fill:#FFFFFF"/>
	<rect x="2057.65" y="394.09" width="1761.10" height="2127.34" style="fill:none;stroke:#FFFFFF;stroke-width:4.32"/>
	<line x1="2055.49" y1="2523.59" x2="3820.91" y2="2523.59" style="stroke:#EAF2F3;stroke-width:6.48"/>
	<line x1="2055.49" y1="1828.83" x2="3820.91" y2="1828.83" style="stroke:#EAF2F3;stroke-width:6.48"/>
	<line x1="2055.49" y1="1134.20" x2="3820.91" y2="1134.20" style="stroke:#EAF2F3;stroke-width:6.48"/>
	<line x1="2055.49" y1="439.45" x2="3820.91" y2="439.45" style="stroke:#EAF2F3;stroke-width:6.48"/>
	<rect x="2207.58" y="508.75" width="206.79" height="2014.84" style="fill:#BFA19C"/>
	<rect x="2210.82" y="511.99" width="200.31" height="2008.36" style="fill:none;stroke:#BFA19C;stroke-width:6.48"/>
	<rect x="2416.47" y="516.67" width="206.79" height="2006.92" style="fill:#BFA19C"/>
	<rect x="2419.71" y="519.91" width="200.31" height="2000.44" style="fill:none;stroke:#BFA19C;stroke-width:6.48"/>
	<rect x="2625.36" y="1721.05" width="206.79" height="802.54" style="fill:#BFA19C"/>
	<rect x="2628.60" y="1724.28" width="200.31" height="796.06" style="fill:none;stroke:#BFA19C;stroke-width:6.48"/>
	<rect x="2834.25" y="2394.02" width="206.91" height="129.57" style="fill:#BFA19C"/>
	<rect x="2837.49" y="2397.26" width="200.43" height="123.09" style="fill:none;stroke:#BFA19C;stroke-width:6.48"/>
	<rect x="3043.26" y="2517.15" width="206.79" height="6.44" style="fill:#BFA19C"/>
	<rect x="3046.50" y="2520.35" width="200.31" height="0.04" style="fill:none;stroke:#BFA19C;stroke-width:6.48"/>
	<rect x="3252.15" y="2523.47" width="206.79" height="0.12" style="fill:#BFA19C"/>
	<rect x="3255.39" y="2520.35" width="200.31" height="6.36" style="fill:none;stroke:#BFA19C;stroke-width:6.48"/>
	<line x1="2055.49" y1="2523.59" x2="3820.91" y2="2523.59" style="stroke:#000000;stroke-width:4.32"/>
	<line x1="2310.91" y1="2523.59" x2="2310.91" y2="2553.54" style="stroke:#000000;stroke-width:4.32"/>
	<text x="2310.91" y="2620.95" style="font-family:'Helvetica';font-size:74.99px;fill:#000000" text-anchor="middle">2</text>
	<line x1="2519.80" y1="2523.59" x2="2519.80" y2="2553.54" style="stroke:#000000;stroke-width:4.32"/>
	<text x="2519.80" y="2620.95" style="font-family:'Helvetica';font-size:74.99px;fill:#000000" text-anchor="middle">3</text>
	<line x1="2728.81" y1="2523.59" x2="2728.81" y2="2553.54" style="stroke:#000000;stroke-width:4.32"/>
	<text x="2728.81" y="2620.95" style="font-family:'Helvetica';font-size:74.99px;fill:#000000" text-anchor="middle">4</text>
	<line x1="2937.70" y1="2523.59" x2="2937.70" y2="2553.54" style="stroke:#000000;stroke-width:4.32"/>
	<text x="2937.70" y="2620.95" style="font-family:'Helvetica';font-size:74.99px;fill:#000000" text-anchor="middle">5</text>
	<line x1="3146.59" y1="2523.59" x2="3146.59" y2="2553.54" style="stroke:#000000;stroke-width:4.32"/>
	<text x="3146.59" y="2620.95" style="font-family:'Helvetica';font-size:74.99px;fill:#000000" text-anchor="middle">6</text>
	<line x1="3355.61" y1="2523.59" x2="3355.61" y2="2553.54" style="stroke:#000000;stroke-width:4.32"/>
	<text x="3355.61" y="2620.95" style="font-family:'Helvetica';font-size:74.99px;fill:#000000" text-anchor="middle">7</text>
	<line x1="3564.49" y1="2523.59" x2="3564.49" y2="2553.54" style="stroke:#000000;stroke-width:4.32"/>
	<text x="3564.49" y="2620.95" style="font-family:'Helvetica';font-size:74.99px;fill:#000000" text-anchor="middle">8</text>
	<line x1="3773.39" y1="2523.59" x2="3773.39" y2="2553.54" style="stroke:#000000;stroke-width:4.32"/>
	<text x="3773.39" y="2620.95" style="font-family:'Helvetica';font-size:74.99px;fill:#000000" text-anchor="middle">9</text>
	<text x="2938.20" y="2703.49" style="font-family:'Helvetica';font-size:74.99px;fill:#000000" text-anchor="middle"># people in household</text>
	<text x="2938.20" y="354.11" style="font-family:'Helvetica';font-weight:bold;font-size:82.54px;fill:#1E2D53" text-anchor="middle">Households with COVID-19</text>
	<text x="1979.88" y="157.51" style="font-family:'Helvetica';font-size:110.01px;fill:#1E2D53" text-anchor="middle">Distribution of household sizes in OpenSAFELY</text>
</svg>
